<svg xmlns="http://www.w3.org/2000/svg" xmlns:xlink="http://www.w3.org/1999/xlink" width="48" height="48" viewBox="0 0 48 48"><defs><style>.a{fill:none;}.b{fill:#fff;}.c{clip-path:url(#a);}.d{fill:#d35e5e;}</style><clipPath id="a"><rect class="a" width="48" height="48"/></clipPath></defs><circle class="b" cx="19.46" cy="19.46" r="19.46" transform="translate(5 5)"/><g class="c"><path class="d" d="M24,48A24,24,0,1,1,48,24,24.027,24.027,0,0,1,24,48M24,3.921m9.885,26.863-6.777-6.747,6.747-6.777a1.961,1.961,0,1,0-2.779-2.767L24.329,21.27l-6.777-6.747A1.961,1.961,0,0,0,14.785,17.3l6.777,6.747-6.747,6.777a1.961,1.961,0,0,0,2.779,2.767l6.747-6.777,6.777,6.747a1.961,1.961,0,1,0,2.767-2.779" transform="translate(0 0)"/></g></svg>