<svg xmlns="http://www.w3.org/2000/svg" xmlns:xlink="http://www.w3.org/1999/xlink" width="48" height="47.999" viewBox="0 0 48 47.999"><defs><style>.a{fill:none;}.b{fill:#fff;}.c{clip-path:url(#a);}.d{fill:#9aadba;}</style><clipPath id="a"><rect class="a" width="48" height="48"/></clipPath></defs><ellipse class="b" cx="17.96" cy="17.96" rx="17.96" ry="17.96" transform="translate(6 6)"/><g class="c"><path class="d" d="M24,48A24,24,0,1,1,48,24,24.027,24.027,0,0,1,24,48ZM23.4,31.343a2.891,2.891,0,1,0,2.033.847A2.786,2.786,0,0,0,23.4,31.343Zm.65-16.229a2.87,2.87,0,0,1,2,.7,2.664,2.664,0,0,1,.774,2.068,3.613,3.613,0,0,1-.181,1.206A3.681,3.681,0,0,1,26.1,20.1a6.784,6.784,0,0,1-.844.937c-.32.3-.7.628-1.134.987s-.829.7-1.172,1.01a8.6,8.6,0,0,0-1.006,1.08,4.98,4.98,0,0,0-.722,1.274,4.422,4.422,0,0,0-.268,1.568,2.342,2.342,0,0,0,.575,1.743,2.7,2.7,0,0,0,1.909.56,3.343,3.343,0,0,0,1.818-.432,1.413,1.413,0,0,0,.665-1.259v-.253a2.1,2.1,0,0,1,.45-1.331,7.275,7.275,0,0,1,1.134-1.134c.445-.363.947-.758,1.493-1.172A8.886,8.886,0,0,0,30.5,22.239a7.514,7.514,0,0,0,1.134-1.928,7,7,0,0,0,.45-2.646,6.772,6.772,0,0,0-.613-2.934,6.235,6.235,0,0,0-1.637-2.124,7.138,7.138,0,0,0-2.377-1.274,9.288,9.288,0,0,0-2.861-.435,11.833,11.833,0,0,0-2.915.325,9.2,9.2,0,0,0-2.2.847A7.4,7.4,0,0,0,17.9,13.224a10.412,10.412,0,0,0-1.081,1.2,4.854,4.854,0,0,0-.647,1.08,2.936,2.936,0,0,0-.253,1.188,1.825,1.825,0,0,0,.215.938,2.347,2.347,0,0,0,.794.719,4.631,4.631,0,0,0,.753.324,2.6,2.6,0,0,0,.828.144,1.834,1.834,0,0,0,.847-.178,2.587,2.587,0,0,0,.612-.453,3.5,3.5,0,0,0,.488-.609c.139-.223.287-.461.431-.7a4.732,4.732,0,0,1,1.134-1.225A3.3,3.3,0,0,1,24.054,15.113Z" transform="translate(0.001 -0.001)"/></g></svg>